<svg xmlns="http://www.w3.org/2000/svg" width="32" height="32" viewBox="0 0 32 32">
    <g fill="#003D79" fill-rule="nonzero">
        <path d="M25.502 3.24a.66.66 0 0 0 .856-.36l.007-.013a.668.668 0 0 0-.367-.866.671.671 0 0 0-.869.366.67.67 0 0 0 .373.873c-.006-.007-.006-.007 0 0zm.045-.11a.541.541 0 0 1-.308-.705.533.533 0 0 1 .688-.308l.013.006c.277.11.418.424.302.706a.535.535 0 0 1-.695.301zm.322-.39c.09.044.2.006.245-.084l.006-.02a.22.22 0 0 0-.013-.218.408.408 0 0 0-.167-.102l-.328-.129-.258.668.13.05.102-.275.135.051.039.334.154.058-.045-.334zm-.225-.219l.064-.186.168.064c.058.026.154.064.122.154s-.09.09-.167.051l-.187-.083zM27.04 6.925l-.013.013c5.52 5.555 5.491 14.53-.06 20.05-5.092 5.06-13.162 5.518-18.791 1.063l-.016.013c5.728 5.338 14.698 5.02 20.035-.707 5.325-5.715 5.024-14.663-.678-20.007a12.194 12.194 0 0 0-.477-.425zM1.91 23.04c-.448.253-.556.63-.32 1.216.212.528.554.765.912.62.288-.118.336-.364.215-1l-.051-.247a2.635 2.635 0 0 1-.064-1.171.832.832 0 0 1 .518-.608c.64-.256 1.245.134 1.606 1.036.394.97.183 1.716-.579 2.03l-.192-.478c.525-.23.66-.726.384-1.43-.233-.582-.601-.835-.985-.682-.314.125-.39.416-.272 1.07l.044.274.039.24c.073.285.09.58.045.87a.772.772 0 0 1-.496.558c-.599.233-1.184-.116-1.51-.925-.353-.887-.167-1.536.511-1.837l.195.464zM1.504 17.926l2.154-1.814.016.672-1.83 1.507.598.65 1.28-.029.012.528-3.66.077-.016-.522 1.44-.032h.387l-.128-.128-.119-.131-1.619-1.75L0 16.259zM3.133 12.266l1.405.483-.173.502-1.405-.502-2.531.768.208-.608 1.574-.429.195-.058c.087-.025.176-.044.266-.06a4.294 4.294 0 0 1-.278-.359l-.976-1.318.201-.567 1.514 2.148zM5.603 5.549l-.771.944 2.31 1.885-.55.684-2.307-1.888-.771.932-.522-.42 2.1-2.563zM10.531 2.083L8.685 3.158l.397.676 1.692-.99.324.538-1.7.992.458.778 1.885-1.098.342.586-2.64 1.54L7.6 3.02l2.595-1.522zM17.61 3.5l-.944.062-.474-.784-1.482.233-.204.9-.916.233.96-3.994.906-.147 2.154 3.498zm-2.077-1.884a4.522 4.522 0 0 1-.4-.746 6.785 6.785 0 0 1-.157.839l-.154.694 1.076-.173-.365-.614zM23.491 4.678l-.768-.3.291-1.085c.03-.128.077-.298.138-.519.058-.22.115-.406.16-.544.045-.144.093-.297.138-.457l.092-.26c-.217.369-.3.503-.502.804-.083.131-.16.243-.224.333l-1.037 1.446-.669-.173-.208-1.75a4.417 4.417 0 0 1-.038-.39c-.01-.228-.022-.404-.026-.519-.006-.106-.006-.246-.006-.445l-.093.439c-.102.483-.153.694-.297 1.273l-.308 1.175-.819-.125L20.243 0l1.235.24.173 1.686c.042.4.051.8.032 1.2a5.62 5.62 0 0 1 .346-.601c.105-.167.195-.31.285-.439l.96-1.382 1.17.397-.953 3.577z"/>
        <path d="M16.509 11.718c-.445.388-1.328 1.226-2.18 2.045l-.96.922a13.245 13.245 0 0 0-2.358-.211c-1.789 0-3.411.49-4.15 1.248-.266.24-.416.582-.413.94.016.855 1.002 1.293 1.302 1.408a4.278 4.278 0 0 0 4.298-.556 23.176 23.176 0 0 0 2.416-2.1c.563.125 1.203.298 1.894.5l.637.182c-.822.806-1.673 1.651-2.457 2.346l-.058.05c-1.088.96-1.869 1.652-3.002 1.902a2.32 2.32 0 0 1-1.555-.103c-.022.003-.045.035-.045.035a2.955 2.955 0 0 0 2.356.752c1.02-.086 2.198-.723 3.41-1.846l1.617-1.6 1.126-1.13a625.702 625.702 0 0 0 2.349.688c-.029 0-1.437 1.386-1.437 1.386l-1.219 1.216a22.19 22.19 0 0 1-2.656 2.365c-1.222.86-2.25 1.312-3.165 1.366a3.122 3.122 0 0 1-1.731-.336c-.026-.003-.054.029-.054.029a3.715 3.715 0 0 0 2.684 1.123c1.479-.038 2.788-.749 4.807-2.617a69.888 69.888 0 0 0 2.672-2.647l1.51-1.533c.944.218 1.91.314 2.877.292 1.434-.026 2.64-.714 2.656-1.498a1.3 1.3 0 0 0-.736-1.075 3.289 3.289 0 0 0-1.76-.503 5.303 5.303 0 0 0-3.331 1.408l-.762.67c.01-.007-.278-.078-.278-.078l-2.106-.585c.621-.583 1.149-1.085 1.629-1.501a5.718 5.718 0 0 1 3.168-1.494c.54-.036 1.498.012 1.885.29.016-.006.041-.044.041-.044a3.766 3.766 0 0 0-2.678-.998c-.73 0-1.894.23-3.331 1.337a23.755 23.755 0 0 0-2.122 2.01c0-.01-1.062-.33-1.062-.33l-.26-.08-1.123-.339c.026 0 .647-.602.647-.602.749-.736 1.465-1.44 2.013-1.904 2.006-1.696 3.29-1.92 4.17-1.93a3.853 3.853 0 0 1 2.28.596c.017 0 .046-.035.046-.035a4.377 4.377 0 0 0-3.357-1.363c-1.242-.023-2.714.665-4.144 1.932zM8.56 17.766c-.64-.044-.96-.31-.96-.812 0-.068.045-1.67 3.702-1.853a9.215 9.215 0 0 1 1.6.045c-.032.006-.416.358-.416.358l-.224.211c-.89.803-2.377 2.135-3.702 2.051zm14.845-1.299c1.062-.71 1.936-1.091 2.48-1.072.323.013.71.112.71.512s-.39.752-1.152 1.024a6.757 6.757 0 0 1-2.829.17c.253-.224.516-.439.79-.634z"/>
    </g>
</svg>
